# xmcd CD database file
#
# Track frame offsets:
#	150
#	23279
#	63576
#	79560
#	107148
#	149388
#	179894
#
# Disc length: 3489 seconds
#
# Revision: 0
# Processed by: cddbd v1.5.2PL0 Copyright (c) Steve Scherf et al.
# Submitted via: jetAudio 7
#
DISCID=590d9f07
DTITLE=劉德海  - Conqueror Xiangyu Takes Off His Armo
DYEAR=2004
DGENRE=Classical
TTITLE0=大浪淘沙
TTITLE1=瀛州古調
TTITLE2=夕陽簫鼓
TTITLE3=長門怨
TTITLE4=霸王卸甲
TTITLE5=彝族舞曲
TTITLE6=草原小姐妹
EXTD=YEAR: 2004
EXTT0=
EXTT1=
EXTT2=
EXTT3=
EXTT4=
EXTT5=
EXTT6=
PLAYORDER=
